<svg width="1444" height="113" viewBox="0 0 1444 113" fill="none" xmlns="http://www.w3.org/2000/svg">
<path d="M384.375 112.5H375V103.125V93.75V84.375V75V65.625H365.625H356.25V56.25V46.875H365.625H375V37.5V28.125V18.75V9.375V0H384.375H393.75V9.375V18.75V28.125V37.5V46.875V56.25V65.625V75V84.375V93.75V103.125V112.5H384.375ZM309.375 112.5H300V103.125V93.75V84.375V75V65.625V56.25V46.875V37.5V28.125V18.75V9.375V0H309.375H318.75V9.375H328.125H337.5V18.75V28.125H346.875H356.25V37.5V46.875H346.875H337.5V37.5V28.125H328.125H318.75V37.5V46.875V56.25V65.625V75V84.375V93.75V103.125V112.5H309.375Z" fill="#101010"/>
<path d="M262.5 112.5H253.125H243.75H234.375H225V103.125V93.75H234.375H243.75H253.125H262.5H271.875V103.125V112.5H262.5ZM271.875 93.75V84.375V75V65.625V56.25V46.875V37.5V28.125V18.75V9.375V0H281.25H290.625V9.375V18.75V28.125V37.5V46.875V56.25V65.625V75V84.375V93.75H281.25H271.875ZM225 93.75H215.625H206.25V84.375V75V65.625V56.25V46.875V37.5V28.125V18.75V9.375V0H215.625H225V9.375V18.75V28.125V37.5V46.875V56.25V65.625V75V84.375V93.75Z" fill="#101010"/>
<path d="M112.5 112.5H103.125V103.125V93.75V84.375V75V65.625V56.25V46.875V37.5V28.125V18.75V9.375V0H112.5H121.875H131.25H140.625H150H159.375H168.75H178.125H187.5V9.375V18.75H178.125H168.75H159.375H150H140.625H131.25H121.875V28.125V37.5H131.25H140.625H150H159.375V46.875V56.25H150H140.625H131.25H121.875V65.625V75V84.375V93.75V103.125V112.5H112.5Z" fill="#101010"/>
<path d="M65.625 112.5H56.25V103.125V93.75V84.375H46.875H37.5V93.75V103.125V112.5H28.125H18.75V103.125V93.75V84.375H9.375H0V75V65.625H9.375H18.75V56.25V46.875H9.375H0V37.5V28.125H9.375H18.75V18.75V9.375V0H28.125H37.5V9.375V18.75V28.125H46.875H56.25V18.75V9.375V0H65.625H75V9.375V18.75V28.125H84.375H93.75V37.5V46.875H84.375H75V56.25V65.625H84.375H93.75V75V84.375H84.375H75V93.75V103.125V112.5H65.625ZM46.875 65.625H56.25V56.25V46.875H46.875H37.5V56.25V65.625H46.875Z" fill="#101010"/>
<path d="M904.375 112.5H895V103.125V93.75V84.375V75V65.625V56.25V46.875V37.5H904.375H913.75V46.875V56.25V65.625V75V84.375V93.75V103.125V112.5H904.375ZM913.75 37.5V28.125V18.75H923.125H932.5V28.125V37.5H923.125H913.75ZM895 37.5H885.625H876.25V28.125V18.75H885.625H895V28.125V37.5ZM932.5 18.75V9.375V0H941.875H951.25V9.375V18.75H941.875H932.5ZM876.25 18.75H866.875H857.5V9.375V0H866.875H876.25V9.375V18.75Z" fill="#101010"/>
<path d="M820 112.5H810.625H801.25H791.875H782.5H773.125H763.75V103.125V93.75H773.125H782.5H791.875H801.25H810.625H820H829.375V103.125V112.5H820ZM829.375 93.75V84.375V75V65.625V56.25H838.75H848.125V65.625V75V84.375V93.75H838.75H829.375ZM829.375 56.25H820H810.625H801.25H791.875H782.5V46.875V37.5H791.875H801.25H810.625H820H829.375V46.875V56.25ZM782.5 37.5H773.125H763.75V28.125V18.75H773.125H782.5V28.125V37.5ZM838.75 18.75H829.375H820H810.625H801.25H791.875H782.5V9.375V0H791.875H801.25H810.625H820H829.375H838.75H848.125V9.375V18.75H838.75Z" fill="#101010"/>
<path d="M745 112.5H735.625V103.125V93.75V84.375V75V65.625V56.25H726.25H716.875H707.5H698.125H688.75V65.625V75V84.375V93.75V103.125V112.5H679.375H670V103.125V93.75V84.375V75V65.625V56.25V46.875V37.5V28.125V18.75H679.375H688.75V28.125V37.5H698.125H707.5H716.875H726.25H735.625V28.125V18.75H745H754.375V28.125V37.5V46.875V56.25V65.625V75V84.375V93.75V103.125V112.5H745ZM735.625 18.75H726.25H716.875H707.5H698.125H688.75V9.375V0H698.125H707.5H716.875H726.25H735.625V9.375V18.75Z" fill="#101010"/>
<path d="M651.25 112.5H641.875H632.5H623.125H613.75H604.375H595H585.625H576.25H566.875V103.125V93.75V84.375V75V65.625V56.25V46.875V37.5V28.125V18.75V9.375V0H576.25H585.625H595H604.375H613.75H623.125H632.5H641.875H651.25H660.625V9.375V18.75H651.25H641.875H632.5H623.125H613.75H604.375H595H585.625V28.125V37.5H595H604.375H613.75V46.875V56.25H604.375H595H585.625V65.625V75V84.375V93.75H595H604.375H613.75H623.125H632.5H641.875H651.25H660.625V103.125V112.5H651.25Z" fill="#101010"/>
<path d="M529.375 112.5H520V103.125V93.75V84.375H510.625H501.25V93.75V103.125V112.5H491.875H482.5V103.125V93.75V84.375H473.125H463.75V75V65.625H473.125H482.5V56.25V46.875H473.125H463.75V37.5V28.125H473.125H482.5V18.75V9.375V0H491.875H501.25V9.375V18.75V28.125H510.625H520V18.75V9.375V0H529.375H538.75V9.375V18.75V28.125H548.125H557.5V37.5V46.875H548.125H538.75V56.25V65.625H548.125H557.5V75V84.375H548.125H538.75V93.75V103.125V112.5H529.375ZM510.625 65.625H520V56.25V46.875H510.625H501.25V56.25V65.625H510.625Z" fill="#101010"/>
<path d="M1433.75 112.5H1424.38V103.125V93.75H1415H1405.62V84.375V75H1415H1424.38V65.625V56.25V46.875V37.5V28.125V18.75V9.375V0H1433.75H1443.12V9.375V18.75V28.125V37.5V46.875V56.25V65.625V75V84.375V93.75V103.125V112.5H1433.75ZM1358.75 112.5H1349.38V103.125V93.75V84.375V75V65.625V56.25V46.875V37.5V28.125V18.75V9.375V0H1358.75H1368.12V9.375V18.75V28.125V37.5V46.875V56.25V65.625V75H1377.5H1386.88V84.375V93.75H1377.5H1368.12V103.125V112.5H1358.75ZM1405.62 75H1396.25H1386.88V65.625V56.25H1396.25H1405.62V65.625V75Z" fill="#101010"/>
<path d="M1311.88 112.5H1302.5H1293.12H1283.75H1274.38H1265H1255.62H1246.25V103.125V93.75H1255.62H1265H1274.38H1283.75H1293.12H1302.5H1311.88H1321.25V103.125V112.5H1311.88ZM1321.25 93.75V84.375V75V65.625V56.25V46.875V37.5V28.125V18.75H1330.62H1340V28.125V37.5V46.875V56.25V65.625V75V84.375V93.75H1330.62H1321.25ZM1246.25 93.75H1236.88H1227.5V84.375V75V65.625V56.25V46.875V37.5V28.125V18.75H1236.88H1246.25V28.125V37.5V46.875V56.25V65.625V75V84.375V93.75ZM1321.25 18.75H1311.88H1302.5H1293.12H1283.75H1274.38H1265H1255.62H1246.25V9.375V0H1255.62H1265H1274.38H1283.75H1293.12H1302.5H1311.88H1321.25V9.375V18.75Z" fill="#101010"/>
<path d="M1208.75 112.5H1199.38V103.125V93.75V84.375V75V65.625H1190H1180.62V56.25V46.875H1190H1199.38V37.5V28.125V18.75V9.375V0H1208.75H1218.12V9.375V18.75V28.125V37.5V46.875V56.25V65.625V75V84.375V93.75V103.125V112.5H1208.75ZM1133.75 112.5H1124.38V103.125V93.75V84.375V75V65.625V56.25V46.875V37.5V28.125V18.75V9.375V0H1133.75H1143.12V9.375H1152.5H1161.88V18.75V28.125H1171.25H1180.62V37.5V46.875H1171.25H1161.88V37.5V28.125H1152.5H1143.12V37.5V46.875V56.25V65.625V75V84.375V93.75V103.125V112.5H1133.75Z" fill="#101010"/>
<path d="M1086.88 112.5H1077.5V103.125V93.75V84.375H1068.12H1058.75V93.75V103.125V112.5H1049.38H1040V103.125V93.75V84.375H1030.62H1021.25V75V65.625H1030.62H1040V56.25V46.875H1030.62H1021.25V37.5V28.125H1030.62H1040V18.75V9.375V0H1049.38H1058.75V9.375V18.75V28.125H1068.12H1077.5V18.75V9.375V0H1086.88H1096.25V9.375V18.75V28.125H1105.62H1115V37.5V46.875H1105.62H1096.25V56.25V65.625H1105.62H1115V75V84.375H1105.62H1096.25V93.75V103.125V112.5H1086.88ZM1068.12 65.625H1077.5V56.25V46.875H1068.12H1058.75V56.25V65.625H1068.12Z" fill="#101010"/>
</svg>
