<svg width="50" height="50" viewBox="0 0 50 50" fill="none" xmlns="http://www.w3.org/2000/svg">
<g clip-path="url(#clip0_230_1021)">
<path d="M10.4681 3.26467C10.9503 5.42917 11.5794 7.522 12.4991 9.5972C14.649 14.4468 17.3645 18.3516 20.5787 22.5854L16.4189 23.0167L20.3211 25.3374L9.90473 31.2058L21.4372 27.9802L20.5575 32.3315L23.9258 29.4173L25.7216 40.798L26.773 29.1283L30.6717 31.3832L28.9652 27.2657L40.5906 29.5654L29.5462 24.4514L32.8568 21.4514L28.4007 21.8275L34.4586 9.78756L25.7393 19.2164L23.3413 16.0719L22.7838 19.1048C21.7195 17.8545 20.7151 16.5983 19.7707 15.1683C17.3821 11.5525 15.337 7.78169 13.6129 3.77113L15.2358 2.57372C16.0967 1.938 17.1422 1.47855 18.256 1.55023C22.1393 1.80052 23.5788 9.45736 24.0787 12.3727L24.1516 10.2776C24.1986 8.92857 24.4044 7.6207 24.8607 6.34221C25.5652 4.36925 27.882 1.24705 30.3718 1.96738C32.3546 2.54082 33.1049 3.62542 34.1387 2.85809L36.739 0.927426C38.0774 -0.0666943 41.1539 -0.787018 42.2147 0.452695C42.6605 0.973257 42.6687 1.71239 42.5476 2.35516L42.1101 4.68535C41.7455 6.62541 42.4535 6.80167 43.5696 7.69004C44.5551 8.47382 45.3878 9.52669 45.4536 10.8463C45.6488 14.7582 39.0006 18.455 36.0357 20.0378L39.7968 19.2305L41.2939 19.1001C43.0568 18.9462 45.162 19.3633 46.6367 20.3962C47.0084 20.6571 47.333 21.18 47.2695 21.6477C47.0613 23.1729 45.0385 24.4138 45.0408 25.3515C45.0408 25.5736 45.2184 25.764 45.4348 25.9391L47.6164 27.6994C48.4643 28.3833 49.2558 29.1341 49.7357 30.113C50.2531 31.1658 50.1802 32.8298 48.8842 33.3727C47.5505 33.9308 45.8864 33.7076 44.8832 34.536C44.1211 35.1658 44.2505 37.0166 43.4332 38.5395C41.522 42.1012 36.4073 37.2704 34.6327 35.7299C34.2798 35.4244 34.0505 35.0342 33.5566 34.8779C34.9996 37.3362 36.3085 39.61 36.1651 42.489C36.1274 43.2481 36.131 44.0495 35.5676 44.637C34.4915 45.7604 31.8489 43.0283 30.8728 43.3092C30.7011 43.3585 30.5211 43.6135 30.4518 43.872L29.6203 46.9684C29.3745 47.8861 28.9734 48.7333 28.2796 49.355C26.9659 50.5324 24.4715 50.0494 23.6459 48.3009L22.6803 46.2586C21.4596 43.677 18.0407 46.637 16.212 45.0177C14.4396 43.449 17.261 38.1329 18.0784 36.3245C17.6397 36.5313 17.4574 36.939 17.1587 37.2457C16.6095 37.8098 16.1108 38.3339 15.5157 38.8532C13.8716 40.2915 11.8782 41.3362 9.68363 41.3515C8.68751 41.3585 8.06772 40.6053 7.94541 39.7463C7.72784 38.2211 7.94305 36.9073 6.70818 37.0166C4.91469 37.174 2.92244 37.999 1.17716 37.8204C0.215138 37.7216 -0.267048 36.9508 -0.182371 36.0001C-0.0976947 35.0495 0.288053 34.1823 0.911367 33.4443L2.42966 31.6465C4.38899 29.3268 1.85927 28.1964 2.43202 25.1588C2.62136 24.1577 3.40227 23.4268 4.29255 22.9802C5.57446 22.3375 6.95752 22.2211 8.36762 22.1118C10.3469 21.9579 10.528 22.2376 11.9817 22.1729C12.318 22.1577 12.6379 22.3974 12.9954 22.227C10.4422 21.2763 6.62586 19.9791 4.92998 17.6841C4.06439 16.5126 2.78131 14.5831 4.09733 13.2881C5.12874 12.274 6.0002 12.2682 6.27893 11.3481C5.80027 8.57605 5.33219 5.63247 6.64703 3.01085C7.01985 2.2682 7.77488 1.95915 8.56284 2.2447C9.26142 2.49734 9.8377 2.94505 10.4669 3.26937L10.4681 3.26467ZM19.258 6.30109C19.258 5.4092 18.5347 4.68535 17.6409 4.68535C16.7471 4.68535 16.0238 5.40802 16.0238 6.30109C16.0238 7.19415 16.7471 7.91683 17.6409 7.91683C18.5347 7.91683 19.258 7.19415 19.258 6.30109ZM11.9746 9.53491C11.9746 8.64302 11.2513 7.91917 10.3575 7.91917C9.46371 7.91917 8.74043 8.64185 8.74043 9.53491C8.74043 10.428 9.46371 11.1507 10.3575 11.1507C11.2513 11.1507 11.9746 10.428 11.9746 9.53491ZM21.6854 11.1518C21.6854 10.2599 20.9621 9.53609 20.0683 9.53609C19.1745 9.53609 18.4512 10.2588 18.4512 11.1518C18.4512 12.0449 19.1745 12.7676 20.0683 12.7676C20.9621 12.7676 21.6854 12.0449 21.6854 11.1518ZM14.402 15.1953C14.402 14.3034 13.6787 13.5796 12.7849 13.5796C11.8911 13.5796 11.1678 14.3022 11.1678 15.1953C11.1678 16.0884 11.8911 16.811 12.7849 16.811C13.6787 16.811 14.402 16.0884 14.402 15.1953ZM33.5366 34.6982C33.5366 34.6629 33.5083 34.6335 33.4719 34.6335C33.4354 34.6335 33.4072 34.6617 33.4072 34.6982C33.4072 34.7346 33.4354 34.7628 33.4719 34.7628C33.5083 34.7628 33.5366 34.7346 33.5366 34.6982Z" fill="#FF0026"/>
<path d="M17.641 7.91681C18.5341 7.91681 19.2581 7.19342 19.2581 6.30107C19.2581 5.40872 18.5341 4.68533 17.641 4.68533C16.7479 4.68533 16.0239 5.40872 16.0239 6.30107C16.0239 7.19342 16.7479 7.91681 17.641 7.91681Z" fill="#FFFF68"/>
<path d="M10.3573 11.1507C11.2504 11.1507 11.9744 10.4273 11.9744 9.53493C11.9744 8.64258 11.2504 7.91919 10.3573 7.91919C9.46423 7.91919 8.74023 8.64258 8.74023 9.53493C8.74023 10.4273 9.46423 11.1507 10.3573 11.1507Z" fill="#FFFF68"/>
<path d="M20.0683 12.7676C20.9614 12.7676 21.6853 12.0442 21.6853 11.1518C21.6853 10.2595 20.9614 9.53607 20.0683 9.53607C19.1752 9.53607 18.4512 10.2595 18.4512 11.1518C18.4512 12.0442 19.1752 12.7676 20.0683 12.7676Z" fill="#FFFF68"/>
<path d="M12.7851 16.811C13.6782 16.811 14.4021 16.0876 14.4021 15.1953C14.4021 14.303 13.6782 13.5796 12.7851 13.5796C11.892 13.5796 11.168 14.303 11.168 15.1953C11.168 16.0876 11.892 16.811 12.7851 16.811Z" fill="#FFFF68"/>
<path d="M20.5785 22.5854C21.5981 23.9285 22.8612 25.1118 23.9996 26.4514C25.1745 26.8333 26.6422 26.643 27.1444 25.2916C27.3937 24.6218 27.3926 23.972 27.2832 23.2634C25.525 22.1506 24.1407 20.6994 22.7824 19.1036L23.3399 16.0708L25.7378 19.2153L34.4572 9.78641L28.3993 21.8263L32.8554 21.4503L29.5448 24.4503L40.5892 29.5642L28.9638 27.2646L30.6703 31.3821L26.7716 29.1271L25.7202 40.7969L23.9244 29.4162L20.5561 32.3304L21.4358 27.9791L9.90332 31.2047L20.3197 25.3363L16.4175 23.0155L20.5773 22.5842L20.5785 22.5854Z" fill="#FFF9F1"/>
<path d="M13.6119 3.76997C15.336 7.78053 17.3812 11.5514 19.7698 15.1671C20.7142 16.5972 21.7185 17.8533 22.7829 19.1036C24.1412 20.6994 25.5255 22.1495 27.2837 23.2634C27.3931 23.9708 27.3942 24.6218 27.1449 25.2916C26.6427 26.643 25.175 26.8333 24.0001 26.4514C22.8617 25.113 21.5986 23.9297 20.5789 22.5854C17.3648 18.3516 14.6504 14.4468 12.4994 9.59721C11.5797 7.52201 10.9505 5.42919 10.4683 3.26468C10.3484 2.72885 10.2719 2.16716 10.4154 1.68772C10.5965 1.08256 11.3398 0.727681 11.9208 0.894542C12.2383 0.986199 12.5523 1.26234 12.6723 1.54906L13.6108 3.76997H13.6119Z" fill="#FFFF68"/>
</g>
<defs>
<clipPath id="clip0_230_1021">
<rect width="50" height="50" fill="white"/>
</clipPath>
</defs>
</svg>
