<svg width="50" height="50" viewBox="0 0 50 50" fill="none" xmlns="http://www.w3.org/2000/svg">
<path d="M47.1604 20.7208C48.4033 23.5831 49.2978 26.5998 49.5753 29.7127V33.3131C49.1724 37.4907 47.5342 41.8062 44.3553 44.6837C46.029 39.4757 43.7864 35.3196 39.5242 32.3649C39.5103 32.1712 39.6598 32.0433 39.7928 31.8762C41.4311 29.8026 41.1802 26.9619 40.4973 24.5578C40.1235 23.2438 39.528 22.0817 38.9478 20.8993C41.7871 19.4612 44.1982 19.8448 47.1617 20.7195L47.1604 20.7208Z" fill="#FFCA1C"/>
<path d="M47.1606 20.7208C44.1958 19.8473 41.786 19.4637 38.9466 20.9005C37.7987 21.4816 36.8003 22.2779 36.011 23.3349C33.8571 19.8713 31.5436 17.5433 28.2393 15.1962C29.0907 14.2556 29.6849 13.1872 30.0574 11.9997C31.0026 8.98045 30.4641 6.19792 29.4682 3.26981C33.7811 5.01553 37.7252 7.90947 40.9396 11.3402C43.5458 14.1214 45.6617 17.2686 47.1606 20.7208Z" fill="#5EB1FF"/>
<path d="M38.9456 20.9005C39.5259 22.0829 40.1214 23.245 40.4951 24.5591C41.178 26.9631 41.4289 29.8039 39.7907 31.8775C39.6589 32.0446 39.5081 32.1737 39.5221 32.3661C38.7796 32.6548 38.791 33.0636 37.709 33.408C38.2019 32.3269 38.3273 31.1306 38.2158 29.8861L38.122 28.8367C37.9485 26.9023 37.0464 24.9996 36.0112 23.3349C36.8006 22.2791 37.799 21.4816 38.9469 20.9005H38.9456Z" fill="#EAB814"/>
<path d="M20.8385 1C21.192 1.15318 21.6443 1.16457 22.0776 1.20128C24.7028 1.42029 27.1152 2.31658 29.468 3.26983C30.4638 6.19794 31.0023 8.98047 30.0571 11.9997C30.0242 11.858 29.9063 11.7883 29.7556 11.7035C28.2985 10.8908 26.8009 10.23 25.1665 9.85397C22.9886 9.35266 20.5623 9.32734 18.7251 10.7338C18.5325 10.8819 18.383 11.0528 18.1613 11.0629C13.8586 7.88924 8.95785 6.54228 3.85693 8.77159C5.04791 6.68786 6.85464 5.00163 8.92745 3.69138C11.445 2.1001 14.2412 1.33041 17.1388 1H20.8372H20.8385Z" fill="#FFCA1C"/>
<path d="M30.0571 11.9997C29.6847 13.1872 29.0904 14.2556 28.239 15.1962C27.5029 14.6734 26.6578 14.2733 25.8203 13.8518C23.318 12.5909 19.7273 11.6731 17.1401 12.8454C17.4366 11.8896 17.9764 11.6617 18.1626 11.0629C18.3843 11.0528 18.5338 10.8819 18.7264 10.7338C20.5636 9.32732 22.9911 9.35391 25.1678 9.85395C26.8022 10.2299 28.2986 10.8908 29.7569 11.7035C29.9064 11.787 30.0255 11.8579 30.0584 11.9997H30.0571Z" fill="#EAB814"/>
<path d="M18.1612 11.0629C17.9737 11.663 17.4352 11.8896 17.1387 12.8454L16.713 14.2176C16.6598 14.3885 16.7827 14.6936 16.6649 14.8354C16.3963 15.1595 16.6788 16.7571 16.6649 16.447C16.7346 18.0686 17.2578 18.8965 17.5885 20.0789L17.7887 20.7917C15.1597 20.9132 12.6016 21.7993 10.463 23.4121C7.24859 25.8377 5.79661 29.4532 5.26194 33.2789C4.03169 31.2508 2.96234 29.1241 2.24903 26.7757C1.6472 24.7971 1.19489 22.8513 1.06185 20.779C0.799585 16.7179 1.33679 13.0707 3.33991 9.49569C3.48055 9.24504 3.62752 8.87285 3.85684 8.77284C8.95776 6.54352 13.8585 7.89175 18.1612 11.0642V11.0629Z" fill="#5EB1FF"/>
<path d="M16.6652 16.4457C16.6791 16.7559 16.3966 15.1595 16.6652 14.8342V16.4457Z" fill="#B6CDC8"/>
<path d="M17.789 20.7904C18.3427 22.7615 21.8332 27.0074 23.7274 28.7253C25.9244 30.7179 28.3367 32.532 31.1634 33.2586C31.921 38.0046 30.4425 42.2151 26.5427 45.1812C25.1515 46.2396 23.6298 46.9282 22.074 47.608C16.7462 45.6193 12.9085 42.6456 9.03658 38.4819C7.5352 36.8678 6.36703 35.098 5.26221 33.2776C5.79815 29.4507 7.24885 25.8352 10.4632 23.4109C12.6019 21.7981 15.16 20.9107 17.789 20.7904Z" fill="#FFCA1C"/>
<path d="M39.5228 32.3661C43.785 35.3196 46.0275 39.4769 44.3538 44.685C43.4277 45.7382 42.2278 46.537 40.952 47.2611C38.641 48.5714 36.0867 49.2449 33.426 49.4778C32.2021 49.5854 30.9934 49.517 29.7885 49.4689C27.0391 49.3613 24.5241 48.5246 22.0737 47.6093C23.6296 46.9295 25.1513 46.2408 26.5424 45.1825C30.4422 42.2151 31.9208 38.0059 31.1632 33.2599L33.1853 33.7802C33.5236 33.8675 33.801 33.884 34.1152 33.884C34.095 34.1663 36.0043 33.8587 35.7281 33.884C36.4098 33.8219 37.0509 33.6207 37.7097 33.4105C38.793 33.0649 38.7816 32.6573 39.5228 32.3686V32.3661Z" fill="#5EB1FF"/>
<path d="M35.7283 33.8814C36.0057 33.8561 34.0964 34.1637 34.1154 33.8814H35.7283Z" fill="#B5CDC8"/>
</svg>
