<svg width="50" height="50" viewBox="0 0 50 50" fill="none" xmlns="http://www.w3.org/2000/svg">
<path d="M34.9832 22.6201C34.0102 22.8781 33.0895 23.2437 32.0258 23.6967C31.8444 22.7169 32.2026 21.8384 32.4946 20.6727C29.4403 21.9812 26.8764 23.7305 24.4677 25.8638C24.0496 26.234 23.7883 26.77 23.2334 26.7516C22.7784 26.2017 21.8776 25.9145 21.4165 25.1712C22.0606 24.1237 25.1348 21.8537 26.2554 20.9937C26.9686 20.4454 27.8356 20.1551 28.5519 19.616L28.8009 19.4286C29.1698 19.6129 29.2974 18.9771 29.5203 18.974C29.8661 18.9679 30.1228 18.6162 30.4011 18.5025C34.8587 16.6641 39.3871 15.0514 44.3782 15.0238C44.4197 15.89 44.4258 16.6917 44.3828 17.4566C42.5444 17.9312 39.6976 17.8574 37.8715 18.6361C36.2437 19.3319 35.0355 20.9952 34.9832 22.6232V22.6201Z" fill="#9B6639"/>
<path d="M23.7298 14.1069C24.8442 16.2233 26.6334 17.7484 28.2997 19.4163C28.0399 19.4563 27.7924 19.444 27.4343 19.3257C21.3426 17.2999 15.5999 14.7642 9.81259 12.0043C7.69134 10.9922 5.79914 9.90174 3.74707 9.05856C3.82085 8.52716 4.52793 8.98791 4.89223 8.87887C6.41552 8.42579 7.7267 8.64849 9.25615 8.78057C14.2165 9.20907 18.9309 10.8494 22.9289 13.7429C23.2256 13.9564 23.4608 14.09 23.7298 14.1069Z" fill="#6A6E37"/>
<path d="M28.8004 19.4255L28.5514 19.6129C28.43 19.5945 28.3762 19.4916 28.2993 19.4148C28.4623 19.3887 28.6359 19.4378 28.8004 19.4255Z" fill="#6A6E37"/>
<path d="M23.491 0.562257C26.1749 6.45531 28.9863 12.3898 29.5197 18.9694C29.2968 18.974 29.1692 19.6083 28.8003 19.424C28.6358 19.4363 28.4621 19.3887 28.2992 19.4133C26.6329 17.7469 24.8437 16.2203 23.7293 14.1038C21.5927 10.0477 21.628 4.86725 23.1913 0.474714C23.325 0.291948 23.4956 0.36874 23.491 0.559186V0.562257Z" fill="#A39843"/>
<path d="M28.2997 19.4163C28.3765 19.4931 28.4303 19.596 28.5518 19.6145C27.8355 20.1535 26.9685 20.4453 26.2553 20.9921C23.0596 21.1687 23.0412 21.5696 19.5841 21.2901C11.9584 20.6727 6.32638 15.9683 3.74707 9.06009C5.79914 9.90327 7.69134 10.9937 9.81259 12.0058C15.5999 14.7642 21.3426 17.2999 27.4343 19.3272C27.7924 19.4455 28.0399 19.4578 28.2997 19.4179V19.4163Z" fill="#A39843"/>
<path d="M30.4006 18.4979C30.1224 18.6131 29.8657 18.9632 29.5199 18.9694C28.9849 12.3883 26.175 6.45375 23.4912 0.562225C26.0306 1.41616 28.2194 3.21003 29.8811 5.42473C32.9338 9.49627 32.3974 14.2589 30.4006 18.4979Z" fill="#6A6E37"/>
<path d="M32.0269 23.6967C33.089 23.2437 34.0098 22.8781 34.9843 22.6201C38.2523 21.7554 42.0659 23.5723 44.2409 25.9852C46.5282 28.5224 47.7425 31.6233 47.9746 35.1189C48.3466 40.7431 44.6099 47.4671 37.725 46.9633C34.8906 46.756 32.5495 45.2846 30.6558 43.1959C25.1974 37.1738 26.6423 27.7944 30.6665 24.7319L32.0284 23.6952L32.0269 23.6967ZM34.9305 28.507C35.593 28.0862 35.8974 27.2906 35.427 26.6317C34.9997 26.0343 34.2065 26.0312 33.544 26.472C30.5682 28.4487 29.3953 32.0978 31.0016 35.3508C31.2875 35.9313 32.03 36.0035 32.4696 35.8161C34.5632 34.9269 30.5313 31.3023 34.9305 28.507ZM39.3513 38.3564C39.3513 37.6776 38.801 37.1277 38.1216 37.1277C37.4422 37.1277 36.8919 37.6776 36.8919 38.3564C36.8919 39.0353 37.4422 39.5851 38.1216 39.5851C38.801 39.5851 39.3513 39.0353 39.3513 38.3564ZM44.2486 39.5774C44.2486 38.9001 43.6983 38.3503 43.0205 38.3503C42.3426 38.3503 41.7923 38.9001 41.7923 39.5774C41.7923 40.2547 42.3426 40.8046 43.0205 40.8046C43.6983 40.8046 44.2486 40.2547 44.2486 39.5774ZM40.5733 43.2496C40.5733 42.5723 40.023 42.0225 39.3452 42.0225C38.6673 42.0225 38.117 42.5723 38.117 43.2496C38.117 43.927 38.6673 44.4768 39.3452 44.4768C40.023 44.4768 40.5733 43.927 40.5733 43.2496Z" fill="#A39843"/>
<path d="M34.9303 28.507C30.531 31.3023 34.5614 34.9253 32.4693 35.8161C32.0297 36.0035 31.2888 35.9313 31.0014 35.3508C29.3935 32.0978 30.5679 28.4487 33.5438 26.472C34.2063 26.0328 34.9994 26.0343 35.4268 26.6318C35.8971 27.2906 35.5928 28.0862 34.9303 28.507Z" fill="#E8D35C"/>
<path d="M38.1213 39.5851C38.8005 39.5851 39.351 39.035 39.351 38.3564C39.351 37.6778 38.8005 37.1277 38.1213 37.1277C37.4422 37.1277 36.8916 37.6778 36.8916 38.3564C36.8916 39.035 37.4422 39.5851 38.1213 39.5851Z" fill="#6A6E37"/>
<path d="M43.0202 40.8046C43.6985 40.8046 44.2483 40.2552 44.2483 39.5774C44.2483 38.8997 43.6985 38.3503 43.0202 38.3503C42.3419 38.3503 41.792 38.8997 41.792 39.5774C41.792 40.2552 42.3419 40.8046 43.0202 40.8046Z" fill="#6A6E37"/>
<path d="M39.3449 44.4768C40.0232 44.4768 40.573 43.9274 40.573 43.2497C40.573 42.5719 40.0232 42.0225 39.3449 42.0225C38.6666 42.0225 38.1167 42.5719 38.1167 43.2497C38.1167 43.9274 38.6666 44.4768 39.3449 44.4768Z" fill="#6A6E37"/>
<path d="M21.4162 25.1696C21.8774 25.913 22.7781 26.2002 23.2331 26.75C29.1126 34.1789 24.3583 45.2555 16.2668 48.599C13.3017 49.8246 10.4273 49.7878 7.5267 48.2473C5.32553 47.0785 3.48251 44.7302 2.8277 41.8444C1.74248 37.0648 3.35032 32.2868 6.5122 28.5838C10.2336 24.2251 16.2761 22.1072 21.4162 25.1681V25.1696ZM18.0315 29.6881C18.7124 29.9676 19.3888 29.6466 19.6562 28.9801C19.833 28.5378 19.7039 27.7898 19.0521 27.4888C14.9403 25.5966 10.7362 28.0939 8.84403 31.8122C8.49049 32.5064 9.0623 33.2713 9.59261 33.4079C10.2428 33.5754 10.7439 33.2928 11.119 32.7015C12.6838 30.2364 14.9956 28.4441 18.0315 29.6896V29.6881ZM14.8481 40.8C14.8481 40.1227 14.2993 39.5744 13.6214 39.5744C12.9436 39.5744 12.3948 40.1227 12.3948 40.8C12.3948 41.4773 12.9436 42.0256 13.6214 42.0256C14.2993 42.0256 14.8481 41.4773 14.8481 40.8ZM18.5218 44.4722C18.5218 43.7949 17.9731 43.2466 17.2952 43.2466C16.6173 43.2466 16.0686 43.7949 16.0686 44.4722C16.0686 45.1495 16.6173 45.6978 17.2952 45.6978C17.9731 45.6978 18.5218 45.1495 18.5218 44.4722ZM13.6276 45.6994C13.6276 45.0205 13.0773 44.4707 12.3979 44.4707C11.7185 44.4707 11.1682 45.0205 11.1682 45.6994C11.1682 46.3782 11.7185 46.928 12.3979 46.928C13.0773 46.928 13.6276 46.3782 13.6276 45.6994Z" fill="#A39843"/>
<path d="M18.0316 29.6881C14.9958 28.4425 12.6839 30.2333 11.1191 32.6999C10.7425 33.2927 10.2414 33.5738 9.59277 33.4064C9.06245 33.2697 8.49064 32.5048 8.84418 31.8106C10.7364 28.0923 14.942 25.595 19.0523 27.4872C19.7055 27.7882 19.8331 28.5362 19.6564 28.9785C19.3904 29.6451 18.7126 29.9661 18.0316 29.6865V29.6881Z" fill="#E8D35C"/>
<path d="M12.3996 46.928C13.0788 46.928 13.6293 46.3779 13.6293 45.6993C13.6293 45.0207 13.0788 44.4706 12.3996 44.4706C11.7205 44.4706 11.1699 45.0207 11.1699 45.6993C11.1699 46.3779 11.7205 46.928 12.3996 46.928Z" fill="#6A6E37"/>
<path d="M13.6197 42.0256C14.2971 42.0256 14.8463 41.4768 14.8463 40.7999C14.8463 40.1231 14.2971 39.5743 13.6197 39.5743C12.9422 39.5743 12.3931 40.1231 12.3931 40.7999C12.3931 41.4768 12.9422 42.0256 13.6197 42.0256Z" fill="#6A6E37"/>
<path d="M17.295 45.6978C17.9724 45.6978 18.5216 45.1491 18.5216 44.4722C18.5216 43.7953 17.9724 43.2466 17.295 43.2466C16.6175 43.2466 16.0684 43.7953 16.0684 44.4722C16.0684 45.1491 16.6175 45.6978 17.295 45.6978Z" fill="#6A6E37"/>
</svg>
