<svg width="50" height="50" viewBox="0 0 50 50" fill="none" xmlns="http://www.w3.org/2000/svg">
<g clip-path="url(#clip0_230_1060)">
<path d="M8.72476 45.0992H23.2576L24.7086 45.0953L24.7112 48L1.28489 47.9974C0.448743 47.9974 -0.102648 47.1995 -0.0845274 46.5076C-0.0651122 45.7523 0.544524 45.107 1.36125 45.1057L8.72476 45.0992Z" fill="#3BD76E"/>
<path d="M11.6317 42.1907H8.72461V45.0992H11.6317V42.1907Z" fill="#36AC5D"/>
<path d="M49.5145 40.3659V41.1095C49.231 41.6397 48.857 42.1777 48.158 42.179L40.7 42.192V45.0914L48.2486 45.107C48.9049 45.1083 49.2673 45.6682 49.5158 46.1649V46.9253C49.2556 47.4064 48.9178 47.9883 48.237 47.9896L24.7123 47.9987L24.7097 45.094L23.2588 45.0979V42.1894H26.1659L26.1685 45.094H37.7904L37.7917 42.1842L33.9086 42.1803C34.6891 41.7807 35.1175 41.0306 34.7823 40.1357L26.096 17.0018C25.863 16.381 25.3634 16.0681 24.7097 16.037L24.7201 1.56026C25.1835 1.54862 25.7051 1.71287 25.9653 2.22759L30.7012 11.6425L32.125 8.18047C32.3425 7.65023 32.8641 7.35796 33.3896 7.3489C33.9151 7.33985 34.4755 7.57393 34.7098 8.11839L38.2731 16.3785C38.765 16.0758 39.2413 15.9633 39.7642 16.147C40.203 16.3022 40.4683 16.6475 40.6716 17.179L49.5171 40.3659H49.5145Z" fill="#36AC5D"/>
<path d="M24.7189 1.56042L24.7085 16.0372C25.3621 16.0695 25.8618 16.3812 26.0947 17.002L34.7811 40.1358C35.1176 41.0308 34.6879 41.7809 33.9074 42.1805L26.1646 42.1895H8.72468L1.36894 42.1947C0.877092 42.1947 0.448664 41.9464 0.219566 41.6244C-0.05354 41.239 -0.206272 40.7799 -0.0185924 40.2858L8.85541 16.905C9.18547 16.0333 10.3543 15.8393 11.1529 16.3592C11.2215 16.5273 11.3483 16.6308 11.4752 16.8377L17.5223 32.4952L22.1302 20.2571L18.7235 11.6026L23.4426 2.2937C23.7144 1.757 24.1998 1.57336 24.7189 1.56042Z" fill="#3BD76E"/>
<path d="M18.7234 11.6037L22.1301 20.2582L17.5223 32.4964L11.4751 16.8389C11.3483 16.6332 11.2214 16.5285 11.1528 16.3604L14.6463 8.25161C14.9051 7.65024 15.4319 7.33468 16.0377 7.34891C16.5981 7.36184 17.1003 7.68516 17.3333 8.24643L18.7234 11.6037Z" fill="#36AC5D"/>
</g>
<defs>
<clipPath id="clip0_230_1060">
<rect width="50" height="50" fill="white"/>
</clipPath>
</defs>
</svg>
