<svg width="50" height="50" viewBox="0 0 50 50" fill="none" xmlns="http://www.w3.org/2000/svg">
<path d="M16.5712 31.9995C16.2663 32.0039 15.957 31.9995 15.6078 32.0304C14.6607 32.1172 13.8947 32.8649 13.8947 33.8701V46.8909C13.8947 47.2486 14.2173 47.384 14.3808 47.5856L3.92392 47.5886C2.26384 47.5886 1 46.2595 1 44.5979V19.9411C1 18.8314 1.85288 18.0337 2.91934 18.0352L5.02278 18.0381C6.03327 18.0381 6.84344 18.8108 6.89941 19.8249C6.94508 20.652 6.85374 21.4394 6.94802 22.2989L10.2991 22.3401C10.5171 22.3431 10.6674 22.2121 10.6674 22.009V19.922C10.6688 18.855 11.5158 18.0352 12.5823 18.0367H14.6857C15.7345 18.0396 16.5712 18.8535 16.5712 19.9323V31.9995ZM11.2065 34.9224L11.2109 30.7764C11.2124 29.0662 9.91907 27.7254 8.25163 27.721C6.64899 27.7166 5.29383 28.997 5.29678 30.6763L5.30561 35.0666C5.30855 36.7224 6.7521 37.9778 8.34148 37.9278C9.93085 37.8777 11.205 36.5973 11.2065 34.9239V34.9224Z" fill="#FFE1B2"/>
<path d="M11.2071 34.9224C11.2056 36.5944 9.9123 37.8763 8.34207 37.9263C6.77184 37.9764 5.30914 36.7209 5.3062 35.0652L5.29737 30.6749C5.29442 28.9956 6.64958 27.7166 8.25222 27.7195C9.91819 27.7239 11.213 29.0647 11.2115 30.7749L11.2071 34.9209V34.9224Z" fill="#FFD28B"/>
<path d="M16.5715 31.9994C16.8101 31.9965 17.0384 32.0141 17.277 31.9891C17.4759 31.9685 17.7145 32.0171 17.9576 32.023C19.027 32.0465 19.8033 32.9031 19.8018 33.9613L19.7988 35.9556C19.7988 36.1675 19.9285 36.3456 20.1582 36.3368C20.9257 36.3044 21.6622 36.403 22.44 36.272C22.5165 35.4699 22.4709 34.7355 22.4753 33.9613C22.4812 32.9355 23.2133 32.0715 24.2665 32.0303C25.0516 31.9994 25.8249 31.9965 26.6115 32.0303C27.619 32.073 28.3909 32.8796 28.3924 33.8671L28.3968 35.9585C28.3968 36.1675 28.5264 36.3309 28.74 36.3309H30.7021C30.9319 36.3309 31.0777 36.1793 31.0777 35.957L31.0806 33.8598C31.0821 32.4836 32.3489 31.8905 33.598 31.9906C33.8381 32.0097 34.0635 31.995 34.3036 32.0009L35.099 32.02C36.1154 32.0436 36.98 32.8001 36.98 33.8715V46.8806C36.9815 47.2383 36.6648 47.3854 36.4954 47.5885H14.3796C14.2176 47.3869 13.895 47.25 13.895 46.8939V33.873C13.895 32.8678 14.661 32.1201 15.6081 32.0333C15.9572 32.0009 16.268 32.0068 16.5715 32.0024V31.9994Z" fill="#FFD28B"/>
<path d="M29.6899 12.1746L33.5993 31.9892C32.3487 31.8906 31.0834 32.4837 31.0819 33.8583L31.0789 35.9556C31.0789 36.1779 30.9317 36.328 30.7033 36.328H28.7413C28.5277 36.328 28.3981 36.1646 28.3981 35.9571L28.3936 33.8657C28.3922 32.8781 27.6188 32.0716 26.6128 32.0289C25.8262 31.9951 25.0529 31.998 24.2677 32.0289C23.2145 32.0701 22.4825 32.9326 22.4766 33.9599C22.4722 34.734 22.5178 35.4685 22.4412 36.2706C21.6635 36.4001 20.9284 36.3015 20.1595 36.3353C19.9297 36.3456 19.7986 36.1676 19.8001 35.9541L19.8031 33.9599C19.8045 32.9031 19.0297 32.0451 17.9589 32.0215C17.7158 32.0157 17.4772 31.9671 17.2783 31.9877L21.1862 12.1731H29.6914L29.6899 12.1746Z" fill="#FFE1B2"/>
<path d="M29.6901 12.1745H21.1849C20.1803 12.0656 19.27 11.3695 19.2715 10.2759V7.77832C19.2715 6.69362 20.2039 5.9386 21.263 5.9386C21.4471 5.9386 21.7785 6.0063 21.9141 5.86501L24.1088 3.56903C24.8336 2.81106 26.0444 2.80959 26.7691 3.56903L28.9654 5.86648C29.0994 6.0063 29.4352 5.94301 29.6105 5.94154C30.7344 5.93712 31.6153 6.75102 31.6153 7.88135V10.1759C31.6153 11.2767 30.8096 12.0509 29.6916 12.176L29.6901 12.1745Z" fill="#FFD28B"/>
<path d="M36.4951 47.5871C36.6645 47.3855 36.9812 47.2368 36.9812 46.8792V33.8701C36.9797 32.7986 36.115 32.0421 35.0987 32.0186L34.3032 31.9995L34.3135 19.8352C34.3135 18.799 35.2091 18.0411 36.1813 18.0396H38.2936C39.3174 18.0367 40.1437 18.7976 40.1997 19.8249C40.2468 20.6697 40.1349 21.4644 40.266 22.3137L43.9264 22.3034C44.0104 21.4718 43.9485 20.7197 43.9662 19.925C43.9897 18.8211 44.8559 18.0323 45.9547 18.0337L47.9683 18.0367C48.9391 18.0381 49.8671 18.7726 49.8671 19.8425L49.8759 44.5994C49.8759 46.261 48.6091 47.59 46.952 47.59L36.4951 47.5871ZM45.5732 35.0225L45.5791 30.6749C45.5806 29.0044 44.2328 27.7195 42.6243 27.7195C41.0157 27.7195 39.6724 29.0059 39.6724 30.6749V34.9636C39.6724 36.615 41.0143 37.9263 42.6228 37.9293C44.1709 37.9322 45.5717 36.6915 45.5732 35.0225Z" fill="#FFE1B2"/>
<path d="M45.5732 35.0225C45.5718 36.6915 44.1709 37.9307 42.6228 37.9293C41.0143 37.9263 39.6724 36.615 39.6724 34.9636V30.6749C39.6724 29.0059 41.0172 27.7195 42.6243 27.7195C44.2313 27.7195 45.5806 29.0044 45.5791 30.6749L45.5732 35.0225Z" fill="#FFD28B"/>
</svg>
