<svg width="50" height="50" viewBox="0 0 50 50" fill="none" xmlns="http://www.w3.org/2000/svg">
<g clip-path="url(#clip0_230_1032)">
<path d="M16.3978 43.2695C15.7345 40.6282 16.7366 38.0194 18.8217 36.6287C21.0074 35.1713 23.7998 35.3342 25.8905 36.9615C26.4887 36.6301 26.5624 35.9361 26.9295 35.6231C29.05 33.8117 31.4115 32.775 34.1996 33.1376C36.5313 33.4406 38.8204 34.7478 40.3031 37.0068C42.8843 34.9362 46.3627 35.2435 48.4789 37.5166C50.5895 39.7841 50.5909 43.2908 48.4789 45.5596C46.3599 47.8341 42.8885 48.1344 40.3059 46.0695C38.5979 48.623 35.9359 50.0265 33.0259 49.9996C30.2222 49.9727 27.6127 48.5564 25.9585 46.0836C24.164 47.4234 22.1484 47.8625 19.9585 47.0495C18.4319 46.483 17.0272 45.054 16.3993 43.2681L16.3978 43.2695Z" fill="#485465"/>
<path d="M28.0454 8.69704C31.8073 9.15308 35.3453 10.9432 38.2581 13.5902C32.6734 13.3948 27.7718 16.2231 25.3409 20.8996C22.8618 25.6696 23.3749 31.7142 26.9284 35.6259C26.5613 35.9389 26.4876 36.6329 25.8895 36.9643C23.8001 35.337 21.0078 35.1741 18.8207 36.6315C16.7356 38.0222 15.7335 40.6296 16.3968 43.2723C6.25073 37.8707 3.79428 24.276 11.0332 15.2699C15.0956 10.2153 21.7604 7.93793 28.044 8.69988L28.0454 8.69704Z" fill="#F9CA74"/>
<path d="M28.0451 8.69705C21.7616 7.9351 15.0967 10.2139 11.0343 15.2671C9.62536 14.6694 8.56796 13.5124 7.67922 12.0097C5.7359 13.1781 3.46939 12.9473 2.03351 11.3639C0.617482 9.80032 0.560791 7.42808 1.9343 5.8107C3.35316 4.13809 5.67919 3.81943 7.68771 5.05725C9.11508 2.42157 11.6438 0.950074 14.3866 0.914667C17.2243 0.877844 19.8296 2.37059 21.2825 5.04167C22.8601 4.16642 24.4675 3.99363 26.0082 4.91704C27.2357 5.65349 28.1032 7.11791 28.0465 8.69705H28.0451Z" fill="#485465"/>
<path d="M45.8343 11.8737C45.4445 9.39811 44.1277 7.63911 41.7266 6.86016C43.9208 6.09963 45.093 4.64512 45.8315 2.35077C46.5785 4.62529 47.7436 6.09538 49.9463 6.86016C47.5466 7.64902 46.2213 9.39953 45.8357 11.8752L45.8343 11.8737Z" fill="#F9CA74"/>
<path d="M39.9035 26.3055C39.8425 26.8975 39.4386 27.185 38.9623 27.1411C37.6838 27.0264 38.5002 25.0181 38.0977 24.5706C37.5222 24.6485 37.0246 24.6796 36.7241 24.3241C36.4846 24.0409 36.4435 23.388 36.8616 23.075C37.199 22.8229 37.8142 23.0976 38.1005 22.8342C38.4974 22.3187 37.6894 20.5101 38.9609 20.4166C39.5704 20.3727 39.9035 20.7325 39.9248 21.4364C39.9389 21.8768 39.7447 22.5071 40.0098 22.8342C40.3004 23.0948 40.9099 22.8286 41.2472 23.0764C41.6228 23.3512 41.6172 23.895 41.4655 24.1981C41.2345 24.6598 40.6476 24.6754 40.0084 24.5663C39.7702 25.1059 39.9644 25.6965 39.9021 26.3069L39.9035 26.3055Z" fill="#F9CA74"/>
<path d="M5.17053 46.7748C4.85585 45.1687 4.23361 44.0329 2.72119 43.2412C4.21376 42.4325 4.86011 41.3122 5.17053 39.6935C5.48237 41.3122 6.12873 42.4283 7.62556 43.2412C6.10889 44.0357 5.4852 45.1687 5.17053 46.7748Z" fill="#F9CA74"/>
</g>
<defs>
<clipPath id="clip0_230_1032">
<rect width="50" height="50" fill="white"/>
</clipPath>
</defs>
</svg>
