<svg width="1107" height="541" viewBox="0 0 1107 541" fill="none" xmlns="http://www.w3.org/2000/svg">
<path d="M6 66C6 32.8629 32.8629 6 66 6H1046C1079.14 6 1106 32.8629 1106 66V480C1106 513.137 1079.14 540 1046 540H66C32.8629 540 6 513.137 6 480V66Z" fill="#101010"/>
<path d="M1 61C1 27.8629 27.8629 1 61 1H1041C1074.14 1 1101 27.8629 1101 61V475C1101 508.137 1074.14 535 1041 535H61C27.8629 535 1 508.137 1 475V61Z" fill="#F1F8F1"/>
<path d="M0 475V61C0 27.3106 27.3106 0 61 0V1C27.8629 1 1 27.8629 1 61V475C1 492.841 8.78658 508.862 21.1465 519.853C32.1368 532.213 48.159 540 66 540H1046C1079.14 540 1106 513.137 1106 480V66C1106 48.159 1098.21 32.1368 1085.85 21.1465C1074.86 8.78658 1058.84 1 1041 1V0C1059.12 0 1075.39 7.89813 1086.56 20.4385C1099.1 31.6108 1107 47.8829 1107 66V480C1107 513.689 1079.69 541 1046 541H66C47.8829 541 31.6108 533.101 20.4385 520.561C7.89813 509.388 0 493.117 0 475ZM1041 0V1H61V0H1041Z" fill="#101010"/>
<path d="M1063.68 197.82C1063.68 225.086 1041.57 247.189 1014.31 247.189C987.04 247.189 964.937 225.086 964.937 197.82C964.937 170.554 987.04 148.45 1014.31 148.45C1041.57 148.45 1063.68 170.554 1063.68 197.82Z" fill="white"/>
<path d="M1063.68 342.225C1063.68 369.491 1041.57 391.594 1014.31 391.594C987.04 391.594 964.937 369.491 964.937 342.225C964.937 314.959 987.04 292.856 1014.31 292.856C1041.57 292.856 1063.68 314.959 1063.68 342.225Z" fill="white"/>
<path d="M52.8379 342.225C46.0215 342.225 40.4956 336.699 40.4956 329.883V328.648C40.4956 321.832 46.0215 316.306 52.8379 316.306H109.613C116.429 316.306 121.955 321.832 121.955 328.649V329.883C121.955 336.699 116.429 342.225 109.613 342.225H52.8379Z" fill="white"/>
<path d="M52.8379 380.486C46.0215 380.486 40.4956 374.96 40.4956 368.144V366.91C40.4956 360.093 46.0215 354.567 52.8379 354.567H109.613C116.429 354.567 121.955 360.093 121.955 366.91V368.144C121.955 374.96 116.429 380.486 109.613 380.486H52.8379Z" fill="white"/>
<path d="M52.8379 418.748C46.0215 418.748 40.4956 413.222 40.4956 406.405V405.171C40.4956 398.354 46.0215 392.829 52.8379 392.829H109.613C116.429 392.829 121.955 398.355 121.955 405.171V406.405C121.955 413.222 116.429 418.748 109.613 418.748H52.8379Z" fill="white"/>
<path d="M81.2249 134.874C88.0413 134.874 93.5676 140.4 93.5676 147.216V178.072H124.423C131.24 178.072 136.766 183.598 136.766 190.415V191.648C136.766 198.464 131.24 203.991 124.423 203.991H93.5676V234.846C93.5676 241.663 88.0413 247.189 81.2249 247.189H79.9915C73.175 247.189 67.6487 241.663 67.6487 234.846V203.991H36.7932C29.9767 203.991 24.4504 198.464 24.4504 191.648V190.415C24.4504 183.598 29.9767 178.072 36.7932 178.072H67.6487V147.216C67.6487 140.4 73.175 134.874 79.9915 134.874H81.2249Z" fill="white"/>
<path d="M109.613 417.748L109.613 418.748H52.8379L52.8381 417.748H109.613ZM120.955 406.405V405.171C120.955 398.907 115.877 393.829 109.613 393.829H52.8381C46.5739 393.829 41.4954 398.907 41.4954 405.171V406.405C41.4954 412.669 46.5739 417.748 52.8381 417.748L52.8379 418.748L52.5198 418.744C45.8503 418.575 40.4956 413.115 40.4956 406.405V405.171C40.4956 398.461 45.8503 393.001 52.5198 392.833L52.8379 392.829H109.613C116.429 392.829 121.955 398.355 121.955 405.171V406.405L121.951 406.724C121.782 413.393 116.323 418.748 109.613 418.748L109.613 417.748C115.877 417.748 120.955 412.669 120.955 406.405ZM1062.68 342.225C1062.68 315.511 1041.02 293.856 1014.31 293.856C987.592 293.856 965.936 315.512 965.936 342.225C965.936 368.939 987.592 390.594 1014.31 390.594L1014.31 391.594C987.253 391.594 965.282 369.835 964.94 342.863L964.937 342.225C964.937 314.959 987.04 292.856 1014.31 292.856L1014.94 292.86C1041.92 293.202 1063.68 315.172 1063.68 342.225L1063.67 342.863C1063.33 369.835 1041.36 391.594 1014.31 391.594L1014.31 390.594C1041.02 390.594 1062.68 368.939 1062.68 342.225ZM109.613 379.487L109.613 380.486H52.8379L52.8381 379.487H109.613ZM120.955 368.144V366.91C120.955 360.646 115.877 355.568 109.613 355.568H52.8381C46.574 355.568 41.4954 360.645 41.4954 366.91V368.144C41.4954 374.408 46.5739 379.487 52.8381 379.487L52.8379 380.486L52.5198 380.482C45.9561 380.316 40.6655 375.026 40.4993 368.462L40.4956 368.144V366.91C40.4956 360.2 45.8504 354.741 52.5198 354.572L52.8379 354.567H109.613L109.931 354.572C116.6 354.741 121.955 360.2 121.955 366.91V368.144L121.951 368.462C121.785 375.026 116.494 380.316 109.931 380.482L109.613 380.486L109.613 379.487C115.877 379.487 120.955 374.408 120.955 368.144ZM109.613 341.225L109.613 342.225H52.8379L52.8381 341.225H109.613ZM120.955 329.882V328.649C120.955 322.385 115.877 317.306 109.613 317.306H52.8381C46.5739 317.306 41.4954 322.385 41.4954 328.649V329.882C41.4954 336.147 46.5739 341.225 52.8381 341.225L52.8379 342.225L52.5198 342.221C45.8503 342.052 40.4956 336.593 40.4956 329.883V328.648C40.4956 321.938 45.8503 316.479 52.5198 316.31L52.8379 316.306H109.613C116.429 316.306 121.955 321.832 121.955 328.649V329.883L121.951 330.202C121.782 336.871 116.323 342.225 109.613 342.225L109.613 341.225C115.877 341.225 120.955 336.147 120.955 329.882ZM67.6487 234.846V203.991H36.7932L36.7932 202.991H68.6487V234.846C68.6487 241.11 73.7272 246.189 79.9914 246.189L79.9915 247.189C73.175 247.189 67.6487 241.663 67.6487 234.846ZM81.2248 246.189L81.2249 247.189H79.9915L79.9914 246.189H81.2248ZM1062.68 197.82C1062.68 171.106 1041.02 149.451 1014.31 149.451C987.592 149.451 965.936 171.106 965.936 197.82C965.937 224.533 987.592 246.189 1014.31 246.189L1014.31 247.189L1013.67 247.185C986.908 246.846 965.279 225.217 964.94 198.458L964.937 197.82C964.937 170.554 987.04 148.45 1014.31 148.45L1014.94 148.455C1041.92 148.796 1063.68 170.767 1063.68 197.82L1063.67 198.458C1063.33 225.429 1041.36 247.189 1014.31 247.189L1014.31 246.189C1041.02 246.189 1062.68 224.533 1062.68 197.82ZM92.5676 234.846V202.991H124.423L124.423 203.991H93.5676V234.846C93.5676 241.663 88.0413 247.189 81.2249 247.189L81.2248 246.189C87.489 246.189 92.5676 241.11 92.5676 234.846ZM135.766 191.648V190.415C135.766 184.15 130.687 179.072 124.423 179.072H92.5676V147.216C92.5676 140.952 87.489 135.874 81.2248 135.874H79.9914C73.7272 135.874 68.6487 140.952 68.6487 147.216V179.072H36.7932C30.529 179.072 25.4504 184.15 25.4504 190.415V191.648C25.4504 197.912 30.529 202.991 36.7932 202.991L36.7932 203.991C29.9767 203.991 24.4504 198.464 24.4504 191.648V190.415C24.4504 183.598 29.9767 178.072 36.7932 178.072H67.6487V147.216C67.6487 140.4 73.175 134.874 79.9915 134.874H81.2249C88.0413 134.874 93.5676 140.4 93.5676 147.216V178.072H124.423C131.24 178.072 136.766 183.598 136.766 190.415V191.648C136.766 198.464 131.24 203.991 124.423 203.991L124.423 202.991C130.687 202.991 135.766 197.912 135.766 191.648Z" fill="#101010"/>
</svg>
