<svg width="340" height="455" viewBox="0 0 340 455" fill="none" xmlns="http://www.w3.org/2000/svg">
<path d="M4 29C4 15.1929 15.1929 4 29 4H314C327.807 4 339 15.1929 339 29V429C339 442.807 327.807 454 314 454H29C15.1929 454 4 442.807 4 429V29Z" fill="#101010"/>
<path d="M1 26C1 12.1929 12.1929 1 26 1H311C324.807 1 336 12.1929 336 26V426C336 439.807 324.807 451 311 451H26C12.1929 451 1 439.807 1 426V26Z" fill="#F1F8F1"/>
<path d="M0 426V26C6.18527e-06 11.6406 11.6406 0 26 0V1C12.1929 1 1 12.1929 1 26V426C1 433.667 4.45282 440.526 9.88672 445.112C14.4726 450.547 21.3324 454 29 454H314C327.807 454 339 442.807 339 429V29C339 21.3324 335.547 14.4726 330.112 9.88672C325.526 4.45282 318.667 1 311 1V0C318.943 0 326.053 3.563 330.822 9.17676C336.437 13.9459 340 21.0563 340 29V429C340 443.359 328.359 455 314 455H29C21.0563 455 13.9459 451.437 9.17676 445.822C3.563 441.053 0 433.943 0 426ZM311 0V1H26V0H311Z" fill="#101010"/>
<path d="M263 386C263 397.598 253.598 407 242 407C230.402 407 221 397.598 221 386C221 374.402 230.402 365 242 365C253.598 365 263 374.402 263 386Z" fill="white"/>
<path d="M305 339C305 350.598 295.598 360 284 360C272.402 360 263 350.598 263 339C263 327.402 272.402 318 284 318C295.598 318 305 327.402 305 339Z" fill="white"/>
<path d="M82.5 313C91.0604 313 98 319.94 98 328.5V345.892H115.5C124.06 345.892 131 352.831 131 361.392C131 369.952 124.06 376.892 115.5 376.892H98V394.5C98 403.06 91.0604 410 82.5 410C73.9396 410 67 403.06 67 394.5V376.892H49.5C40.9397 376.892 34.0001 369.952 34 361.392C34 352.831 40.9396 345.892 49.5 345.892H67V328.5C67 319.94 73.9396 313 82.5 313Z" fill="white"/>
<path d="M192 421C194.209 421 196 422.791 196 425C196 427.209 194.209 429 192 429H147C144.791 429 143 427.209 143 425C143 422.791 144.791 421 147 421H192Z" fill="white"/>
<path d="M192 428V429H147V428H192ZM195 425C195 423.343 193.657 422 192 422H147C145.343 422 144 423.343 144 425C144 426.657 145.343 428 147 428V429C144.791 429 143 427.209 143 425C143 422.791 144.791 421 147 421H192C194.209 421 196 422.791 196 425C196 427.209 194.209 429 192 429V428C193.657 428 195 426.657 195 425ZM67 394.5V376.892H49.5V375.892H68V394.5C68 402.508 74.4919 409 82.5 409V410C73.9396 410 67 403.06 67 394.5ZM97 394.5V375.892H115.5V376.892H98V394.5C98 403.06 91.0604 410 82.5 410V409C90.5081 409 97 402.508 97 394.5ZM262 386C262 374.954 253.046 366 242 366C230.954 366 222 374.954 222 386C222 397.046 230.954 406 242 406V407C230.402 407 221 397.598 221 386C221 374.402 230.402 365 242 365C253.598 365 263 374.402 263 386C263 397.598 253.598 407 242 407V406C253.046 406 262 397.046 262 386ZM130 361.392C130 353.383 123.508 346.892 115.5 346.892H97V328.5C97 320.492 90.5081 314 82.5 314C74.4919 314 68 320.492 68 328.5V346.892H49.5C41.4919 346.892 35 353.383 35 361.392C35.0001 369.4 41.492 375.892 49.5 375.892V376.892C40.9397 376.892 34.0001 369.952 34 361.392C34 352.831 40.9396 345.892 49.5 345.892H67V328.5C67 319.94 73.9396 313 82.5 313C91.0604 313 98 319.94 98 328.5V345.892H115.5C124.06 345.892 131 352.831 131 361.392C131 369.952 124.06 376.892 115.5 376.892V375.892C123.383 375.892 129.797 369.601 129.995 361.766L130 361.392ZM304 339C304 327.954 295.046 319 284 319C272.954 319 264 327.954 264 339C264 350.046 272.954 359 284 359V360C272.402 360 263 350.598 263 339C263 327.402 272.402 318 284 318C295.598 318 305 327.402 305 339C305 350.598 295.598 360 284 360V359C295.046 359 304 350.046 304 339Z" fill="#101010"/>
</svg>
